<?xml version="1.0" encoding="UTF-8"?>
<svg width="80px" height="80px" viewBox="0 0 80 80" version="1.1" xmlns="http://www.w3.org/2000/svg" xmlns:xlink="http://www.w3.org/1999/xlink">
    <!-- Generator: Sketch 51.3 (57544) - http://www.bohemiancoding.com/sketch -->
    <title>clock-gold</title>
    <desc>Created with Sketch.</desc>
    <defs></defs>
    <g id="Page-1" stroke="none" stroke-width="1" fill="none" fill-rule="evenodd">
        <g id="Assets" transform="translate(-239.000000, -540.000000)" fill="#BD9D6E" fill-rule="nonzero">
            <g id="clock-gold" transform="translate(239.000000, 540.000000)">
                <path d="M68.285,11.715 C60.730625,4.16046875 50.6853125,0 40,0 C29.3146875,0 19.269375,4.16046875 11.715,11.715 C4.160625,19.2695312 0,29.3146875 0,40 C0,50.6853125 4.16046875,60.730625 11.715,68.285 C19.2695312,75.839375 29.3146875,80 40,80 C50.6853125,80 60.730625,75.8395312 68.285,68.285 C75.8395312,60.730625 80,50.6853125 80,40 C80,29.3146875 75.8395312,19.269375 68.285,11.715 Z M66.535625,66.535625 C59.4484375,73.6226562 50.0245312,77.5257812 40,77.5257812 C29.9754687,77.5257812 20.5515625,73.6226562 13.464375,66.535625 C6.3771875,59.4485937 2.47421875,50.0245312 2.47421875,40 C2.47421875,29.9754687 6.37734375,20.5515625 13.464375,13.464375 C20.5514062,6.3771875 29.9754687,2.47421875 40,2.47421875 C50.0245313,2.47421875 59.4484375,6.37734375 66.535625,13.464375 C73.6228125,20.5514062 77.5257812,29.9753125 77.5257812,40 C77.5257812,50.0246875 73.6226562,59.4484375 66.535625,66.535625 Z" id="Shape"></path>
                <path d="M40,6.59796875 C21.5820312,6.59796875 6.59796875,21.5820312 6.59796875,40 C6.59796875,58.4179687 21.5820312,73.4020312 40,73.4020312 C58.4179687,73.4020312 73.4020312,58.4179687 73.4020312,40 C73.4020312,21.5820312 58.4179687,6.59796875 40,6.59796875 Z M59.0192187,54.7951562 L57.2698437,56.5445312 L62.2173437,61.4920312 C56.8584375,67.03 49.4551562,70.5757812 41.2371875,70.9009375 L41.2371875,63.9175 L38.7629687,63.9175 L38.7629687,70.9009375 C30.545,70.5759375 23.1417187,67.0301562 17.7829687,61.4925 L22.7304687,56.545 L20.9810937,54.795625 L16.1307812,59.6459375 C11.9679687,54.5971875 9.375,48.2098437 9.09921875,41.2371875 L16.0826562,41.2371875 L16.0826562,38.7629687 L9.0990625,38.7629687 C9.37484375,31.7903125 11.9678125,25.4029687 16.1304687,20.354375 L20.9807812,25.2046875 L22.7301562,23.4553125 L17.7826562,18.5078125 C23.1415625,12.97 30.5448437,9.42421875 38.7628125,9.09921875 L38.7628125,16.0826562 L41.2370312,16.0826562 L41.2370312,9.0990625 C49.455,9.4240625 56.8582812,12.9698437 62.2170312,18.5075 L57.2695312,23.455 L59.0189062,25.204375 L63.8692187,20.3540625 C68.031875,25.4028125 70.625,31.79 70.900625,38.7626562 L63.9173437,38.7626562 L63.9173437,41.236875 L70.9007812,41.236875 C70.625,48.2095312 68.0320312,54.596875 63.869375,59.6454687 L59.0192187,54.7951562 Z" id="Shape"></path>
                <polygon id="Shape" points="41.2371875 39.4876563 41.2371875 21.0309375 38.7628125 21.0309375 38.7628125 40.5123437 51.0840625 52.8334375 52.8334375 51.0840625"></polygon>
            </g>
        </g>
    </g>
</svg>