<?xml version="1.0" encoding="UTF-8"?>
<svg width="120px" height="120px" viewBox="0 0 120 120" version="1.1" xmlns="http://www.w3.org/2000/svg" xmlns:xlink="http://www.w3.org/1999/xlink">
    <!-- Generator: Sketch 51.3 (57544) - http://www.bohemiancoding.com/sketch -->
    <title>Frame-top-right</title>
    <desc>Created with Sketch.</desc>
    <defs></defs>
    <g id="Page-1" stroke="none" stroke-width="1" fill="none" fill-rule="evenodd">
        <g id="Assets" transform="translate(-475.000000, -905.000000)" fill="#BD9D6E">
            <g id="Frame-top-right" transform="translate(535.000000, 965.000000) scale(-1, 1) translate(-535.000000, -965.000000) translate(475.000000, 905.000000)">
                <path d="M23.3636194,23.2783125 L36.7087687,23.2783125 L23.3636194,36.6901875 L23.3636194,23.2783125 Z M21.9438433,40.1326875 L40.1360075,21.8514375 L21.9438433,21.8514375 L21.9438433,40.1326875 Z" id="Fill-1"></path>
                <path d="M11.4860075,0.0005625 L0.59608209,10.9430625 L10.0718284,10.9430625 L10.0718284,39.5780625 L2.30130597,39.5780625 L2.55503731,119.998688 L5.23041045,119.998688 L5.12779851,104.634937 L10.0718284,99.6643125 L10.0718284,112.361812 L11.4860075,112.361812 L11.4860075,59.9855625 L60.2863806,10.9430625 L93.9953358,10.9430625 L93.9953358,9.5236875 L41.3889925,9.5236875 L41.3889925,5.0255625 L119.999067,5.0255625 L119.999067,2.1868125 L38.5643657,2.1868125 L38.5643657,9.5236875 L11.4860075,9.5236875 L11.4860075,0.0005625 Z M10.0718284,3.4280625 L10.0718284,9.5236875 L4.00652985,9.5236875 L10.0718284,3.4280625 Z M11.4860075,42.4168125 L18.7845149,42.4168125 L18.7845149,18.7524375 L41.3889925,18.7524375 L41.3889925,10.9430625 L58.2882463,10.9430625 L11.4860075,57.9774375 L11.4860075,42.4168125 Z M11.4860075,10.9430625 L38.5643657,10.9430625 L38.5643657,15.9136875 L15.9598881,15.9136875 L15.9598881,39.5780625 L11.4860075,39.5780625 L11.4860075,10.9430625 Z M5.12779851,42.4168125 L10.0718284,42.4168125 L10.0718284,97.6580625 L5.12779851,102.626813 L5.12779851,42.4168125 Z" id="Fill-2"></path>
            </g>
        </g>
    </g>
</svg>