<?xml version="1.0" encoding="UTF-8"?>
<svg width="274px" height="79px" viewBox="0 0 274 79" version="1.1" xmlns="http://www.w3.org/2000/svg" xmlns:xlink="http://www.w3.org/1999/xlink">
    <!-- Generator: Sketch 51.3 (57544) - http://www.bohemiancoding.com/sketch -->
    <title>Logo-white</title>
    <desc>Created with Sketch.</desc>
    <defs>
        <polygon id="path-1" points="0 78.9473684 273.442105 78.9473684 273.442105 0.607368421 0 0.607368421"></polygon>
    </defs>
    <g id="Page-1" stroke="none" stroke-width="1" fill="none" fill-rule="evenodd">
        <g id="Assets" transform="translate(-686.000000, -2126.000000)">
            <g id="Logo-white" transform="translate(686.000000, 2125.000000)">
                <path d="M118.066,24.4242105 L145.178632,24.4242105 L145.178632,30.6357895 L124.277579,30.6357895 L124.277579,44.0147368 L145.178632,44.0147368 L145.178632,50.2273684 L118.066,50.2273684 L118.066,24.4242105 Z M118.066,4.83368421 L145.178632,4.83368421 L145.178632,11.0452632 L124.277579,11.0452632 L124.277579,21.6347368 L118.066,21.6347368 L118.066,4.83368421 Z M115.276526,53.0157895 L147.968105,53.0157895 L147.968105,41.2252632 L127.067053,41.2252632 L127.067053,33.4252632 L147.968105,33.4252632 L147.968105,21.6347368 L127.067053,21.6347368 L127.067053,13.8347368 L147.968105,13.8347368 L147.968105,2.04421053 L115.276526,2.04421053 L115.276526,53.0157895 Z" id="Fill-1" fill="#FFFFFF"></path>
                <g id="Group-30" transform="translate(0.000000, 0.445263)">
                    <path d="M82.1351579,49.8629474 L73.1288421,49.8629474 L73.1288421,43.4313684 L82.1351579,43.4313684 C90.8825263,43.4313684 97.9972632,36.3155789 97.9972632,27.5692632 C97.9972632,18.8218947 90.8825263,11.7061053 82.1351579,11.7061053 L73.1288421,11.7061053 L73.1288421,5.27557895 L82.1351579,5.27557895 C94.4277895,5.27557895 104.428842,15.2766316 104.428842,27.5692632 C104.428842,39.8618947 94.4277895,49.8629474 82.1351579,49.8629474 Z M73.1288421,14.4145263 L82.1351579,14.4145263 C89.3888421,14.4145263 95.2898947,20.3155789 95.2898947,27.5692632 C95.2898947,34.8218947 89.3888421,40.7229474 82.1351579,40.7229474 L73.1288421,40.7229474 L73.1288421,14.4145263 Z M63.8204211,49.8629474 L70.4035789,49.8629474 L70.4035789,5.27557895 L63.8204211,5.27557895 L63.8204211,49.8629474 Z M82.1351579,2.56715789 L61.0941053,2.56715789 L61.0941053,52.5703158 L82.1351579,52.5703158 C95.8856842,52.5703158 107.137263,41.3197895 107.137263,27.5692632 C107.137263,13.8176842 95.8856842,2.56715789 82.1351579,2.56715789 Z" id="Fill-2" fill="#FFFFFF"></path>
                    <mask id="mask-2" fill="white">
                        <use xlink:href="#path-1"></use>
                    </mask>
                    <g id="Clip-5"></g>
                    <path d="M264.187368,50.0347368 L270.906316,50.0347368 L270.906316,4.13473684 L264.187368,4.13473684 L264.187368,50.0347368 Z M261.651579,22.46 L250.241053,48.3978947 L249.52,50.0347368 L243.812632,50.0347368 L243.092632,48.3978947 L231.681053,22.46 L231.681053,7.93368421 L244.345263,37.0410526 L246.666316,42.3168421 L248.987368,37.0410526 L261.651579,7.93368421 L261.651579,22.46 Z M222.426316,50.0347368 L229.145263,50.0347368 L229.145263,4.13473684 L222.426316,4.13473684 L222.426316,50.0347368 Z M261.651579,1.59894737 L246.666316,36.02 L231.681053,1.59894737 L219.890526,1.59894737 L219.890526,52.5705263 L231.681053,52.5705263 L231.681053,28.7578947 L242.157895,52.5705263 L251.174737,52.5705263 L261.651579,28.7578947 L261.651579,52.5705263 L273.443158,52.5705263 L273.443158,1.59894737 L261.651579,1.59894737 Z" id="Fill-4" fill="#FFFFFF" mask="url(#mask-2)"></path>
                    <path d="M12.0925263,27.0849474 C12.0925263,19.1407368 18.5325263,12.6996842 26.4777895,12.6996842 C34.422,12.6996842 40.8630526,19.1407368 40.8630526,27.0849474 C40.8630526,35.0291579 34.422,41.4702105 26.4777895,41.4702105 C18.5325263,41.4702105 12.0925263,35.0291579 12.0925263,27.0849474 M26.4777895,50.8544211 C20.4104211,50.8544211 14.8693684,48.566 10.6651579,44.8123158 L15.3946316,40.0828421 C18.3809474,42.6333684 22.2514737,44.1775789 26.4777895,44.1775789 C35.9030526,44.1775789 43.5704211,36.5102105 43.5704211,27.0849474 C43.5704211,17.6596842 35.9030526,9.99231579 26.4777895,9.99231579 C17.0525263,9.99231579 9.38410526,17.6596842 9.38410526,27.0849474 C9.38410526,31.3112632 10.9293684,35.1807368 13.4798947,38.1681053 L8.75042105,42.8975789 C4.99568421,38.6923158 2.70726316,33.1523158 2.70726316,27.0849474 C2.70726316,13.9786316 13.3704211,3.31547368 26.4777895,3.31547368 C39.5841053,3.31547368 50.2472632,13.9786316 50.2472632,27.0849474 C50.2472632,40.1912632 39.5841053,50.8544211 26.4777895,50.8544211 M26.4777895,0.607052632 C11.8546316,0.607052632 -0.000105263158,12.4617895 -0.000105263158,27.0849474 C-0.000105263158,41.7081053 11.8546316,53.5628421 26.4777895,53.5628421 C41.1009474,53.5628421 52.9546316,41.7081053 52.9546316,27.0849474 C52.9546316,12.4617895 41.1009474,0.607052632 26.4777895,0.607052632" id="Fill-6" fill="#FFFFFF" mask="url(#mask-2)"></path>
                    <path d="M183.928947,50.8544211 C171.636316,50.8544211 161.635263,40.8533684 161.635263,28.5607368 L161.635263,28.4144211 L168.066842,28.4144211 L168.066842,28.5607368 C168.066842,37.3070526 175.182632,44.4228421 183.928947,44.4228421 C192.676316,44.4228421 199.791053,37.3070526 199.791053,28.5607368 L199.791053,28.4144211 L206.223684,28.4144211 L206.223684,28.5607368 C206.223684,40.8533684 196.222632,50.8544211 183.928947,50.8544211 Z M161.635263,25.7554737 L168.066842,25.7554737 L168.066842,4.30705263 L161.635263,4.30705263 L161.635263,25.7554737 Z M199.792105,25.7554737 L206.223684,25.7554737 L206.223684,4.30705263 L199.792105,4.30705263 L199.792105,25.7554737 Z M197.083684,1.59863158 L197.083684,28.5607368 C197.083684,35.8133684 191.182632,41.7144211 183.928947,41.7144211 C176.675263,41.7144211 170.774211,35.8133684 170.774211,28.5607368 L170.774211,1.59863158 L158.927895,1.59863158 L158.927895,28.5607368 C158.927895,42.3112632 170.178421,53.5628421 183.928947,53.5628421 C197.679474,53.5628421 208.931053,42.3112632 208.931053,28.5607368 L208.931053,1.59863158 L197.083684,1.59863158 Z" id="Fill-7" fill="#FFFFFF" mask="url(#mask-2)"></path>
                    <path d="M11.5070526,75.2597895 L14.7923158,75.2597895 L13.1502105,70.9366316 L11.5070526,75.2597895 Z M15.1049474,76.0976842 L11.1828421,76.0976842 L10.3333684,78.3545263 L9.42810526,78.3545263 L13.1502105,68.4661053 L16.8586316,78.3545263 L15.9649474,78.3545263 L15.1049474,76.0976842 Z" id="Fill-8" fill="#FFFFFF" mask="url(#mask-2)"></path>
                    <polygon id="Fill-9" fill="#FFFFFF" mask="url(#mask-2)" points="25.7314737 69.5617895 22.9598947 69.5617895 22.9598947 78.3554737 22.122 78.3554737 22.122 69.5617895 19.3398947 69.5617895 19.3398947 68.7228421 25.7314737 68.7228421"></polygon>
                    <polygon id="Fill-10" fill="#FFFFFF" mask="url(#mask-2)" points="43.0285263 69.5617895 40.2569474 69.5617895 40.2569474 78.3554737 39.4190526 78.3554737 39.4190526 69.5617895 36.6369474 69.5617895 36.6369474 68.7228421 43.0285263 68.7228421"></polygon>
                    <polygon id="Fill-11" fill="#FFFFFF" mask="url(#mask-2)" points="54.6490526 75.2710526 48.6258947 75.2710526 48.6258947 78.3552632 47.7774737 78.3552632 47.7774737 68.7226316 48.6258947 68.7226316 48.6258947 74.4110526 54.6490526 74.4110526 54.6490526 68.7226316 55.4985263 68.7226316 55.4985263 78.3552632 54.6490526 78.3552632"></polygon>
                    <polygon id="Fill-12" fill="#FFFFFF" mask="url(#mask-2)" points="64.9733684 78.3549474 60.2470526 78.3549474 60.2470526 68.7233684 64.9291579 68.7233684 64.9291579 69.5612632 61.1070526 69.5612632 61.1070526 74.4107368 64.2807368 74.4107368 64.2807368 75.2486316 61.1070526 75.2486316 61.1070526 77.5170526 64.9733684 77.5170526"></polygon>
                    <polygon id="Fill-13" fill="#FFFFFF" mask="url(#mask-2)" points="89.3550526 68.7116842 85.5561053 78.9474737 82.5497895 70.9801053 79.5329474 78.9474737 75.7445263 68.7116842 76.6508421 68.7116842 79.5224211 76.5232632 82.5497895 68.4443158 85.5666316 76.5232632 88.4497895 68.7116842"></polygon>
                    <path d="M101.914211,73.5503158 C101.914211,72.4187368 101.513158,71.4513684 100.713158,70.6503158 C99.9121053,69.8503158 98.9457895,69.4492632 97.8131579,69.4492632 C96.6889474,69.4492632 95.7257895,69.8503158 94.9247368,70.6503158 C94.1236842,71.4513684 93.7236842,72.4187368 93.7236842,73.5503158 C93.7236842,74.6745263 94.1236842,75.6376842 94.9247368,76.4387368 C95.7257895,77.2397895 96.6889474,77.6408421 97.8131579,77.6408421 C98.9457895,77.6408421 99.9121053,77.2397895 100.713158,76.4387368 C101.513158,75.6376842 101.914211,74.6745263 101.914211,73.5503158 M102.774211,73.5503158 C102.774211,74.9061053 102.287895,76.0692632 101.316316,77.0376842 C100.343684,78.0050526 99.1763158,78.4892632 97.8131579,78.4892632 C96.45,78.4892632 95.2878947,78.0071579 94.3268421,77.0418947 C93.3657895,76.0776842 92.8857895,74.9134737 92.8857895,73.5503158 C92.8857895,72.1871579 93.3657895,71.0197895 94.3268421,70.0471579 C95.2878947,69.0755789 96.45,68.5892632 97.8131579,68.5892632 C99.1763158,68.5892632 100.343684,69.0755789 101.316316,70.0471579 C102.287895,71.0197895 102.774211,72.1871579 102.774211,73.5503158" id="Fill-14" fill="#FFFFFF" mask="url(#mask-2)"></path>
                    <path d="M108.384211,74.4107368 L110.686316,74.4107368 C111.006316,74.4033684 111.307368,74.3328421 111.590526,74.1991579 C111.873684,74.0644211 112.121053,73.8896842 112.333684,73.6738947 C112.546316,73.4581053 112.711579,73.2044211 112.831579,72.9138947 C112.949474,72.6233684 113.009474,72.3138947 113.009474,71.9865263 C113.009474,71.6507368 112.946316,71.336 112.82,71.0423158 C112.692632,70.7486316 112.52,70.4907368 112.3,70.2707368 C112.081053,70.0507368 111.824211,69.8781053 111.529474,69.7507368 C111.234737,69.6244211 110.92,69.5623158 110.585263,69.5623158 L108.384211,69.5623158 L108.384211,74.4107368 Z M107.523158,78.3549474 L107.523158,68.7233684 L110.585263,68.7233684 C111.032632,68.7233684 111.453684,68.8117895 111.848421,68.9865263 C112.243158,69.1612632 112.585263,69.396 112.875789,69.6907368 C113.166316,69.9844211 113.396842,70.3286316 113.568421,70.7233684 C113.74,71.1181053 113.825263,71.5391579 113.825263,71.9865263 C113.825263,72.3886316 113.757895,72.7675789 113.624211,73.1254737 C113.490526,73.4833684 113.304211,73.8044211 113.066316,74.0865263 C112.827368,74.3696842 112.546316,74.6075789 112.222105,74.8012632 C111.897895,74.996 111.546316,75.1265263 111.166316,75.1928421 L113.781053,78.3549474 L112.696842,78.3549474 L110.115789,75.2486316 L108.384211,75.2486316 L108.384211,78.3549474 L107.523158,78.3549474 Z" id="Fill-15" fill="#FFFFFF" mask="url(#mask-2)"></path>
                    <polygon id="Fill-16" fill="#FFFFFF" mask="url(#mask-2)" points="121.066105 74.1650526 124.172421 78.3334737 123.133474 78.3334737 120.540842 74.8576842 119.422947 76.3545263 119.422947 78.3545263 118.574526 78.3545263 118.586105 68.7229474 119.456632 68.7229474 119.434526 74.9471579 124.105053 68.7229474 125.145053 68.7229474"></polygon>
                    <polygon id="Fill-17" fill="#FFFFFF" mask="url(#mask-2)" points="129.892632 78.3547368 130.730526 78.3547368 130.730526 68.7115789 129.892632 68.7115789"></polygon>
                    <polygon id="Fill-18" fill="#FFFFFF" mask="url(#mask-2)" points="140.207263 78.3549474 135.479895 78.3549474 135.479895 68.7233684 140.162 68.7233684 140.162 69.5612632 136.340947 69.5612632 136.340947 74.4107368 139.514632 74.4107368 139.514632 75.2486316 136.340947 75.2486316 136.340947 77.5170526 140.207263 77.5170526"></polygon>
                    <path d="M149.123263,70.1426316 C148.966421,69.9342105 148.784316,69.7668421 148.575895,69.6394737 C148.366421,69.5121053 148.121158,69.4352632 147.838,69.4047368 C147.591684,69.3826316 147.361158,69.3942105 147.145368,69.4384211 C146.929579,69.4836842 146.736947,69.5626316 146.569579,69.6794737 C146.402211,69.7942105 146.266421,69.9436842 146.162211,70.1257895 C146.056947,70.3078947 145.993789,70.5257895 145.971684,70.7784211 C145.949579,71.0331579 145.973789,71.2373684 146.044316,71.3931579 C146.115895,71.55 146.235895,71.6984211 146.407474,71.8352632 C146.579053,71.9731579 146.799053,72.1205263 147.066421,72.2763158 C147.334842,72.4331579 147.654842,72.6384211 148.027474,72.8910526 C148.288526,73.0405263 148.552737,73.2131579 148.821158,73.41 C149.089579,73.6078947 149.309579,73.8142105 149.480105,74.0310526 C149.666421,74.2542105 149.795895,74.5163158 149.866421,74.8184211 C149.936947,75.1205263 149.953789,75.4310526 149.916947,75.7510526 C149.879053,76.1689474 149.768526,76.5468421 149.586421,76.8857895 C149.404316,77.2257895 149.171684,77.5078947 148.888526,77.7352632 C148.605368,77.9626316 148.283263,78.13 147.921158,78.2373684 C147.560105,78.3457895 147.182211,78.3815789 146.787474,78.3436842 C146.355895,78.3068421 145.945368,78.1826316 145.559053,77.97 C145.171684,77.7573684 144.865368,77.4731579 144.642211,77.1152632 L145.312737,76.5563158 C145.461158,76.8394737 145.661158,77.0552632 145.910632,77.2047368 C146.160105,77.3542105 146.470632,77.4457895 146.843263,77.4847368 C147.111684,77.5131579 147.372737,77.4984211 147.625368,77.4394737 C147.879053,77.3794737 148.108526,77.2784211 148.312737,77.1384211 C148.518,76.9963158 148.689579,76.8131579 148.827474,76.59 C148.964316,76.3657895 149.048526,76.1015789 149.078,75.7963158 C149.107474,75.4752632 149.087474,75.2131579 149.016947,75.0089474 C148.946421,74.8036842 148.836947,74.6236842 148.687474,74.4657895 C148.538,74.31 148.359053,74.1626316 148.150632,74.0247368 C147.942211,73.8878947 147.715895,73.7331579 147.469579,73.5615789 C147.298,73.4721053 147.128526,73.3826316 146.961158,73.2931579 C146.793789,73.2036842 146.625368,73.1068421 146.458,73.0026316 C146.290632,72.8984211 146.126421,72.7857895 145.966421,72.6626316 C145.806421,72.5394737 145.651684,72.3931579 145.503263,72.2215789 C145.330632,72.0268421 145.213789,71.7994737 145.150632,71.5394737 C145.087474,71.2784211 145.074842,70.9805263 145.111684,70.6457895 C145.141158,70.3026316 145.240105,69.9952632 145.408526,69.7236842 C145.574842,69.4521053 145.788526,69.2226316 146.044316,69.0363158 C146.301158,68.85 146.592737,68.7142105 146.915895,68.6289474 C147.240105,68.5426316 147.581158,68.5184211 147.939053,68.5552632 C148.288526,68.5931579 148.620105,68.6994737 148.932737,68.8742105 C149.246421,69.05 149.518,69.2752632 149.748526,69.5510526 L149.123263,70.1426316 Z" id="Fill-19" fill="#FFFFFF" mask="url(#mask-2)"></path>
                    <polygon id="Fill-20" fill="#FFFFFF" mask="url(#mask-2)" points="160.118947 73.9863158 163.7 73.9863158 163.7 73.1368421 160.118947 73.1368421"></polygon>
                    <path d="M178.365158,70.1426316 C178.208316,69.9342105 178.025158,69.7668421 177.816737,69.6394737 C177.608316,69.5121053 177.362,69.4352632 177.078842,69.4047368 C176.833579,69.3826316 176.603053,69.3942105 176.387263,69.4384211 C176.170421,69.4836842 175.978842,69.5626316 175.811474,69.6794737 C175.644105,69.7942105 175.508316,69.9436842 175.404105,70.1257895 C175.298842,70.3078947 175.235684,70.5257895 175.213579,70.7784211 C175.191474,71.0331579 175.215684,71.2373684 175.286211,71.3931579 C175.357789,71.55 175.477789,71.6984211 175.649368,71.8352632 C175.820947,71.9731579 176.040947,72.1205263 176.308316,72.2763158 C176.576737,72.4331579 176.896737,72.6384211 177.269368,72.8910526 C177.530421,73.0405263 177.794632,73.2131579 178.063053,73.41 C178.331474,73.6078947 178.550421,73.8142105 178.722,74.0310526 C178.908316,74.2542105 179.036737,74.5163158 179.108316,74.8184211 C179.177789,75.1205263 179.195684,75.4310526 179.157789,75.7510526 C179.120947,76.1689474 179.010421,76.5468421 178.828316,76.8857895 C178.645158,77.2257895 178.413579,77.5078947 178.130421,77.7352632 C177.847263,77.9626316 177.524105,78.13 177.163053,78.2373684 C176.802,78.3457895 176.424105,78.3815789 176.029368,78.3436842 C175.596737,78.3068421 175.187263,78.1826316 174.800947,77.97 C174.412526,77.7573684 174.107263,77.4731579 173.884105,77.1152632 L174.553579,76.5563158 C174.703053,76.8394737 174.902,77.0552632 175.152526,77.2047368 C175.402,77.3542105 175.712526,77.4457895 176.085158,77.4847368 C176.352526,77.5131579 176.614632,77.4984211 176.867263,77.4394737 C177.120947,77.3794737 177.349368,77.2784211 177.554632,77.1384211 C177.758842,76.9963158 177.930421,76.8131579 178.068316,76.59 C178.206211,76.3657895 178.290421,76.1015789 178.319895,75.7963158 C178.349368,75.4752632 178.329368,75.2131579 178.257789,75.0089474 C178.187263,74.8036842 178.077789,74.6236842 177.928316,74.4657895 C177.779895,74.31 177.600947,74.1626316 177.392526,74.0247368 C177.184105,73.8878947 176.956737,73.7331579 176.711474,73.5615789 C176.539895,73.4721053 176.369368,73.3826316 176.203053,73.2931579 C176.035684,73.2036842 175.867263,73.1068421 175.699895,73.0026316 C175.532526,72.8984211 175.368316,72.7857895 175.208316,72.6626316 C175.047263,72.5394737 174.893579,72.3931579 174.744105,72.2215789 C174.572526,72.0268421 174.455684,71.7994737 174.392526,71.5394737 C174.329368,71.2784211 174.315684,70.9805263 174.353579,70.6457895 C174.383053,70.3026316 174.482,69.9952632 174.649368,69.7236842 C174.816737,69.4521053 175.029368,69.2226316 175.286211,69.0363158 C175.543053,68.85 175.833579,68.7142105 176.157789,68.6289474 C176.482,68.5426316 176.823053,68.5184211 177.179895,68.5552632 C177.530421,68.5931579 177.862,68.6994737 178.174632,68.8742105 C178.487263,69.05 178.759895,69.2752632 178.990421,69.5510526 L178.365158,70.1426316 Z" id="Fill-21" fill="#FFFFFF" mask="url(#mask-2)"></path>
                    <polygon id="Fill-22" fill="#FFFFFF" mask="url(#mask-2)" points="183.828421 78.3547368 184.666316 78.3547368 184.666316 68.7115789 183.828421 68.7115789"></polygon>
                    <polygon id="Fill-23" fill="#FFFFFF" mask="url(#mask-2)" points="196.947053 78.6006316 190.242842 70.9132632 190.242842 78.3553684 189.416526 78.3553684 189.416526 68.6006316 196.120737 76.3995789 196.120737 68.7111579 196.947053 68.7111579"></polygon>
                    <path d="M209.361789,77.6734737 C208.550211,78.2176842 207.643895,78.4892632 206.646,78.4892632 C205.282842,78.4892632 204.117579,78.0050526 203.149158,77.0376842 C202.180737,76.0692632 201.696526,74.9061053 201.696526,73.5503158 C201.696526,72.1871579 202.180737,71.0197895 203.149158,70.0471579 C204.117579,69.0755789 205.282842,68.5892632 206.646,68.5892632 C207.621789,68.5892632 208.527053,68.8608421 209.361789,69.4050526 L208.902842,70.1197895 C208.233368,69.6724211 207.479684,69.4503158 206.646,69.4503158 C205.514421,69.4503158 204.547053,69.8503158 203.747053,70.6503158 C202.944947,71.4513684 202.544947,72.4187368 202.544947,73.5503158 C202.544947,74.6745263 202.947053,75.6376842 203.752316,76.4387368 C204.557579,77.2397895 205.521789,77.6408421 206.646,77.6408421 C207.464947,77.6408421 208.217579,77.4166316 208.902842,76.9692632 L209.361789,77.6734737 Z" id="Fill-24" fill="#FFFFFF" mask="url(#mask-2)"></path>
                    <polygon id="Fill-25" fill="#FFFFFF" mask="url(#mask-2)" points="218.836421 78.3549474 214.110105 78.3549474 214.110105 68.7233684 218.791158 68.7233684 218.791158 69.5612632 214.970105 69.5612632 214.970105 74.4107368 218.143789 74.4107368 218.143789 75.2486316 214.970105 75.2486316 214.970105 77.5170526 218.836421 77.5170526"></polygon>
                    <polygon id="Fill-26" fill="#FFFFFF" mask="url(#mask-2)" points="230.244737 68.7116842 231.596316 68.7116842 231.596316 78.3548421 230.758421 78.3548421 230.758421 69.5390526 229.741579 69.5390526"></polygon>
                    <path d="M242.055053,72.0525263 C242.055053,71.7177895 241.988737,71.402 241.854,71.1041053 C241.720316,70.8051579 241.537158,70.5409474 241.306632,70.3104211 C241.075053,70.0788421 240.810842,69.8967368 240.514,69.762 C240.216105,69.6283158 239.899263,69.562 239.563474,69.562 C239.227684,69.562 238.916105,69.6283158 238.624526,69.762 C238.335053,69.8967368 238.083474,70.0788421 237.870842,70.3104211 C237.658211,70.5409474 237.490842,70.8051579 237.367684,71.1041053 C237.245579,71.402 237.183474,71.7177895 237.183474,72.0525263 C237.183474,72.3883158 237.245579,72.7009474 237.367684,72.9925263 C237.490842,73.282 237.661368,73.5335789 237.881368,73.7451579 C238.101368,73.9588421 238.360316,74.1262105 238.658211,74.2483158 C238.957158,74.3714737 239.284526,74.4335789 239.641368,74.4335789 C239.962421,74.4335789 240.267684,74.3756842 240.558211,74.2598947 C240.848737,74.1441053 241.102421,73.9841053 241.318211,73.7798947 C241.534,73.5746316 241.706632,73.3325263 241.837158,73.0525263 C241.967684,72.7746316 242.040316,72.4735789 242.055053,72.1535789 L242.055053,72.0525263 Z M242.915053,72.0525263 C242.915053,72.8725263 242.646632,73.6167368 242.111895,74.2883158 L238.860316,78.3546316 L237.776105,78.3546316 L240.279263,75.2041053 C240.175053,75.2272632 240.066632,75.2430526 239.955053,75.2546316 C239.842421,75.2662105 239.711895,75.2714737 239.563474,75.2714737 C239.109789,75.2714737 238.686632,75.1893684 238.296105,75.0251579 C237.904526,74.862 237.562421,74.6346316 237.272947,74.3441053 C236.982421,74.0525263 236.755053,73.7125263 236.591895,73.3209474 C236.426632,72.9304211 236.345579,72.5083158 236.345579,72.0525263 C236.345579,71.5988421 236.426632,71.1683158 236.591895,70.762 C236.755053,70.3567368 236.982421,70.0009474 237.272947,69.6956842 C237.562421,69.3904211 237.904526,69.1472632 238.296105,68.9683158 C238.686632,68.7904211 239.109789,68.7009474 239.563474,68.7009474 C240.017158,68.7009474 240.448737,68.7904211 240.854,68.9683158 C241.260316,69.1472632 241.616105,69.3904211 241.921368,69.6956842 C242.226632,70.0009474 242.468737,70.3567368 242.646632,70.762 C242.825579,71.1683158 242.915053,71.5988421 242.915053,72.0525263 Z" id="Fill-27" fill="#FFFFFF" mask="url(#mask-2)"></path>
                    <path d="M252.267789,74.8012632 C252.253053,74.0865263 251.992,73.476 251.486737,72.9696842 C250.964632,72.4412632 250.335158,72.176 249.597263,72.176 C249.089895,72.176 248.613053,72.3138947 248.166737,72.5886316 L248.144632,72.6117895 L248.134105,72.6117895 L248.156211,68.7012632 L252.157263,68.7012632 L252.157263,69.5612632 L249.039368,69.5612632 L249.027789,71.3833684 C249.214105,71.3538947 249.403579,71.3381053 249.597263,71.3381053 C250.565684,71.3381053 251.393053,71.6844211 252.078316,72.3770526 C252.763579,73.0549474 253.109895,73.8707368 253.118316,74.8233684 L253.118316,74.9475789 C253.118316,75.916 252.772,76.7444211 252.083579,77.4338947 C251.395158,78.1223158 250.565684,78.4665263 249.597263,78.4665263 C248.881474,78.4665263 248.238316,78.2770526 247.664632,77.896 L248.134105,77.1928421 C248.587789,77.4844211 249.076211,77.6296842 249.597263,77.6296842 C250.335158,77.6296842 250.964632,77.3675789 251.486737,76.8465263 C251.992,76.3328421 252.253053,75.7181053 252.267789,75.0023158 L252.267789,74.8012632 Z" id="Fill-28" fill="#FFFFFF" mask="url(#mask-2)"></path>
                    <path d="M258.184737,70.49 C258.340526,70.1773684 258.545789,69.8952632 258.798421,69.6426316 C259.392105,69.0405263 260.124737,68.7394737 260.994211,68.7394737 C261.855263,68.7394737 262.553158,69.0184211 263.088947,69.5763158 C263.623684,70.1331579 263.892105,70.79 263.892105,71.5489474 C263.892105,72.0836842 263.763684,72.5826316 263.506842,73.0478947 C263.25,73.5121053 262.755263,74.1415789 262.019474,74.9373684 L259.69,77.4552632 L264.014211,77.4552632 L264.014211,78.3584211 L257.65,78.3584211 L261.227895,74.4910526 C261.956316,73.7110526 262.428947,73.1331579 262.648947,72.7573684 C262.867895,72.3826316 262.977368,71.9868421 262.977368,71.57 C262.977368,71.0426316 262.780526,70.59 262.386842,70.2110526 C261.993158,69.8321053 261.513158,69.6426316 260.948947,69.6426316 C260.347895,69.6426316 259.845789,69.8436842 259.444737,70.2447368 C259.214211,70.4742105 259.039474,70.7647368 258.920526,71.1142105 L258.184737,70.49 Z" id="Fill-29" fill="#FFFFFF" mask="url(#mask-2)"></path>
                </g>
            </g>
        </g>
    </g>
</svg>