<?xml version="1.0" encoding="UTF-8"?>
<svg width="206px" height="60px" viewBox="0 0 206 60" version="1.1" xmlns="http://www.w3.org/2000/svg" xmlns:xlink="http://www.w3.org/1999/xlink">
    <!-- Generator: Sketch 51.3 (57544) - http://www.bohemiancoding.com/sketch -->
    <title>Logo-black</title>
    <desc>Created with Sketch.</desc>
    <defs>
        <polygon id="path-1" points="0 59.2105263 205.081579 59.2105263 205.081579 0.455526316 0 0.455526316"></polygon>
    </defs>
    <g id="Page-1" stroke="none" stroke-width="1" fill="none" fill-rule="evenodd">
        <g id="Assets" transform="translate(-358.000000, -2112.000000)">
            <g id="Logo-black" transform="translate(358.000000, 2112.000000)">
                <path d="M88.5495,18.3181579 L108.883974,18.3181579 L108.883974,22.9768421 L93.2081842,22.9768421 L93.2081842,33.0110526 L108.883974,33.0110526 L108.883974,37.6705263 L88.5495,37.6705263 L88.5495,18.3181579 Z M88.5495,3.62526316 L108.883974,3.62526316 L108.883974,8.28394737 L93.2081842,8.28394737 L93.2081842,16.2260526 L88.5495,16.2260526 L88.5495,3.62526316 Z M86.4573947,39.7618421 L110.976079,39.7618421 L110.976079,30.9189474 L95.3002895,30.9189474 L95.3002895,25.0689474 L110.976079,25.0689474 L110.976079,16.2260526 L95.3002895,16.2260526 L95.3002895,10.3760526 L110.976079,10.3760526 L110.976079,1.53315789 L86.4573947,1.53315789 L86.4573947,39.7618421 Z" id="Fill-1" fill="#231F20"></path>
                <g id="Group-30" transform="translate(0.000000, 0.333947)">
                    <path d="M61.6013684,37.3972105 L54.8466316,37.3972105 L54.8466316,32.5735263 L61.6013684,32.5735263 C68.1618947,32.5735263 73.4979474,27.2366842 73.4979474,20.6769474 C73.4979474,14.1164211 68.1618947,8.77957895 61.6013684,8.77957895 L54.8466316,8.77957895 L54.8466316,3.95668421 L61.6013684,3.95668421 C70.8208421,3.95668421 78.3216316,11.4574737 78.3216316,20.6769474 C78.3216316,29.8964211 70.8208421,37.3972105 61.6013684,37.3972105 Z M54.8466316,10.8108947 L61.6013684,10.8108947 C67.0416316,10.8108947 71.4674211,15.2366842 71.4674211,20.6769474 C71.4674211,26.1164211 67.0416316,30.5422105 61.6013684,30.5422105 L54.8466316,30.5422105 L54.8466316,10.8108947 Z M47.8653158,37.3972105 L52.8026842,37.3972105 L52.8026842,3.95668421 L47.8653158,3.95668421 L47.8653158,37.3972105 Z M61.6013684,1.92536842 L45.8205789,1.92536842 L45.8205789,39.4277368 L61.6013684,39.4277368 C71.9142632,39.4277368 80.3529474,30.9898421 80.3529474,20.6769474 C80.3529474,10.3632632 71.9142632,1.92536842 61.6013684,1.92536842 Z" id="Fill-2" fill="#231F20"></path>
                    <mask id="mask-2" fill="white">
                        <use xlink:href="#path-1"></use>
                    </mask>
                    <g id="Clip-5"></g>
                    <path d="M198.140526,37.5260526 L203.179737,37.5260526 L203.179737,3.10105263 L198.140526,3.10105263 L198.140526,37.5260526 Z M196.238684,16.845 L187.680789,36.2984211 L187.14,37.5260526 L182.859474,37.5260526 L182.319474,36.2984211 L173.760789,16.845 L173.760789,5.95026316 L183.258947,27.7807895 L184.999737,31.7376316 L186.740526,27.7807895 L196.238684,5.95026316 L196.238684,16.845 Z M166.819737,37.5260526 L171.858947,37.5260526 L171.858947,3.10105263 L166.819737,3.10105263 L166.819737,37.5260526 Z M196.238684,1.19921053 L184.999737,27.015 L173.760789,1.19921053 L164.917895,1.19921053 L164.917895,39.4278947 L173.760789,39.4278947 L173.760789,21.5684211 L181.618421,39.4278947 L188.381053,39.4278947 L196.238684,21.5684211 L196.238684,39.4278947 L205.082368,39.4278947 L205.082368,1.19921053 L196.238684,1.19921053 Z" id="Fill-4" fill="#231F20" mask="url(#mask-2)"></path>
                    <path d="M9.06939474,20.3137105 C9.06939474,14.3555526 13.8993947,9.52476316 19.8583421,9.52476316 C25.8165,9.52476316 30.6472895,14.3555526 30.6472895,20.3137105 C30.6472895,26.2718684 25.8165,31.1026579 19.8583421,31.1026579 C13.8993947,31.1026579 9.06939474,26.2718684 9.06939474,20.3137105 M19.8583421,38.1408158 C15.3078158,38.1408158 11.1520263,36.4245 7.99886842,33.6092368 L11.5459737,30.0621316 C13.7857105,31.9750263 16.6886053,33.1331842 19.8583421,33.1331842 C26.9272895,33.1331842 32.6778158,27.3826579 32.6778158,20.3137105 C32.6778158,13.2447632 26.9272895,7.49423684 19.8583421,7.49423684 C12.7893947,7.49423684 7.03807895,13.2447632 7.03807895,20.3137105 C7.03807895,23.4834474 8.19702632,26.3855526 10.1099211,28.6260789 L6.56281579,32.1731842 C3.74676316,29.0192368 2.03044737,24.8642368 2.03044737,20.3137105 C2.03044737,10.4839737 10.0278158,2.48660526 19.8583421,2.48660526 C29.6880789,2.48660526 37.6854474,10.4839737 37.6854474,20.3137105 C37.6854474,30.1434474 29.6880789,38.1408158 19.8583421,38.1408158 M19.8583421,0.455289474 C8.89097368,0.455289474 -7.89473684e-05,9.34634211 -7.89473684e-05,20.3137105 C-7.89473684e-05,31.2810789 8.89097368,40.1721316 19.8583421,40.1721316 C30.8257105,40.1721316 39.7159737,31.2810789 39.7159737,20.3137105 C39.7159737,9.34634211 30.8257105,0.455289474 19.8583421,0.455289474" id="Fill-6" fill="#231F20" mask="url(#mask-2)"></path>
                    <path d="M137.946711,38.1408158 C128.727237,38.1408158 121.226447,30.6400263 121.226447,21.4205526 L121.226447,21.3108158 L126.050132,21.3108158 L126.050132,21.4205526 C126.050132,27.9802895 131.386974,33.3171316 137.946711,33.3171316 C144.507237,33.3171316 149.843289,27.9802895 149.843289,21.4205526 L149.843289,21.3108158 L154.667763,21.3108158 L154.667763,21.4205526 C154.667763,30.6400263 147.166974,38.1408158 137.946711,38.1408158 Z M121.226447,19.3166053 L126.050132,19.3166053 L126.050132,3.23028947 L121.226447,3.23028947 L121.226447,19.3166053 Z M149.844079,19.3166053 L154.667763,19.3166053 L154.667763,3.23028947 L149.844079,3.23028947 L149.844079,19.3166053 Z M147.812763,1.19897368 L147.812763,21.4205526 C147.812763,26.8600263 143.386974,31.2858158 137.946711,31.2858158 C132.506447,31.2858158 128.080658,26.8600263 128.080658,21.4205526 L128.080658,1.19897368 L119.195921,1.19897368 L119.195921,21.4205526 C119.195921,31.7334474 127.633816,40.1721316 137.946711,40.1721316 C148.259605,40.1721316 156.698289,31.7334474 156.698289,21.4205526 L156.698289,1.19897368 L147.812763,1.19897368 Z" id="Fill-7" fill="#231F20" mask="url(#mask-2)"></path>
                    <path d="M8.63028947,56.4448421 L11.0942368,56.4448421 L9.86265789,53.2024737 L8.63028947,56.4448421 Z M11.3287105,57.0732632 L8.38713158,57.0732632 L7.75002632,58.7658947 L7.07107895,58.7658947 L9.86265789,51.3495789 L12.6439737,58.7658947 L11.9737105,58.7658947 L11.3287105,57.0732632 Z" id="Fill-8" fill="#231F20" mask="url(#mask-2)"></path>
                    <polygon id="Fill-9" fill="#231F20" mask="url(#mask-2)" points="19.2986053 52.1713421 17.2199211 52.1713421 17.2199211 58.7666053 16.5915 58.7666053 16.5915 52.1713421 14.5049211 52.1713421 14.5049211 51.5421316 19.2986053 51.5421316"></polygon>
                    <polygon id="Fill-10" fill="#231F20" mask="url(#mask-2)" points="32.2713947 52.1713421 30.1927105 52.1713421 30.1927105 58.7666053 29.5642895 58.7666053 29.5642895 52.1713421 27.4777105 52.1713421 27.4777105 51.5421316 32.2713947 51.5421316"></polygon>
                    <polygon id="Fill-11" fill="#231F20" mask="url(#mask-2)" points="40.9867895 56.4532895 36.4694211 56.4532895 36.4694211 58.7664474 35.8331053 58.7664474 35.8331053 51.5419737 36.4694211 51.5419737 36.4694211 55.8082895 40.9867895 55.8082895 40.9867895 51.5419737 41.6238947 51.5419737 41.6238947 58.7664474 40.9867895 58.7664474"></polygon>
                    <polygon id="Fill-12" fill="#231F20" mask="url(#mask-2)" points="48.7300263 58.7662105 45.1852895 58.7662105 45.1852895 51.5425263 48.6968684 51.5425263 48.6968684 52.1709474 45.8302895 52.1709474 45.8302895 55.8080526 48.2105526 55.8080526 48.2105526 56.4364737 45.8302895 56.4364737 45.8302895 58.1377895 48.7300263 58.1377895"></polygon>
                    <polygon id="Fill-13" fill="#231F20" mask="url(#mask-2)" points="67.0162895 51.5337632 64.1670789 59.2106053 61.9123421 53.2350789 59.6497105 59.2106053 56.8083947 51.5337632 57.4881316 51.5337632 59.6418158 57.3924474 61.9123421 51.3332368 64.1749737 57.3924474 66.3373421 51.5337632"></polygon>
                    <path d="M76.4356579,55.1627368 C76.4356579,54.3140526 76.1348684,53.5885263 75.5348684,52.9877368 C74.9340789,52.3877368 74.2093421,52.0869474 73.3598684,52.0869474 C72.5167105,52.0869474 71.7943421,52.3877368 71.1935526,52.9877368 C70.5927632,53.5885263 70.2927632,54.3140526 70.2927632,55.1627368 C70.2927632,56.0058947 70.5927632,56.7282632 71.1935526,57.3290526 C71.7943421,57.9298421 72.5167105,58.2306316 73.3598684,58.2306316 C74.2093421,58.2306316 74.9340789,57.9298421 75.5348684,57.3290526 C76.1348684,56.7282632 76.4356579,56.0058947 76.4356579,55.1627368 M77.0806579,55.1627368 C77.0806579,56.1795789 76.7159211,57.0519474 75.9872368,57.7782632 C75.2577632,58.5037895 74.3822368,58.8669474 73.3598684,58.8669474 C72.3375,58.8669474 71.4659211,58.5053684 70.7451316,57.7814211 C70.0243421,57.0582632 69.6643421,56.1851053 69.6643421,55.1627368 C69.6643421,54.1403684 70.0243421,53.2648421 70.7451316,52.5353684 C71.4659211,51.8066842 72.3375,51.4419474 73.3598684,51.4419474 C74.3822368,51.4419474 75.2577632,51.8066842 75.9872368,52.5353684 C76.7159211,53.2648421 77.0806579,54.1403684 77.0806579,55.1627368" id="Fill-14" fill="#231F20" mask="url(#mask-2)"></path>
                    <path d="M81.2881579,55.8080526 L83.0147368,55.8080526 C83.2547368,55.8025263 83.4805263,55.7496316 83.6928947,55.6493684 C83.9052632,55.5483158 84.0907895,55.4172632 84.2502632,55.2554211 C84.4097368,55.0935789 84.5336842,54.9033158 84.6236842,54.6854211 C84.7121053,54.4675263 84.7571053,54.2354211 84.7571053,53.9898947 C84.7571053,53.7380526 84.7097368,53.502 84.615,53.2817368 C84.5194737,53.0614737 84.39,52.8680526 84.225,52.7030526 C84.0607895,52.5380526 83.8681579,52.4085789 83.6471053,52.3130526 C83.4260526,52.2183158 83.19,52.1717368 82.9389474,52.1717368 L81.2881579,52.1717368 L81.2881579,55.8080526 Z M80.6423684,58.7662105 L80.6423684,51.5425263 L82.9389474,51.5425263 C83.2744737,51.5425263 83.5902632,51.6088421 83.8863158,51.7398947 C84.1823684,51.8709474 84.4389474,52.047 84.6568421,52.2680526 C84.8747368,52.4883158 85.0476316,52.7464737 85.1763158,53.0425263 C85.305,53.3385789 85.3689474,53.6543684 85.3689474,53.9898947 C85.3689474,54.2914737 85.3184211,54.5756842 85.2181579,54.8441053 C85.1178947,55.1125263 84.9781579,55.3533158 84.7997368,55.5648947 C84.6205263,55.7772632 84.4097368,55.9556842 84.1665789,56.1009474 C83.9234211,56.247 83.6597368,56.3448947 83.3747368,56.3946316 L85.3357895,58.7662105 L84.5226316,58.7662105 L82.5868421,56.4364737 L81.2881579,56.4364737 L81.2881579,58.7662105 L80.6423684,58.7662105 Z" id="Fill-15" fill="#231F20" mask="url(#mask-2)"></path>
                    <polygon id="Fill-16" fill="#231F20" mask="url(#mask-2)" points="90.7995789 55.6237895 93.1293158 58.7501053 92.3501053 58.7501053 90.4056316 56.1432632 89.5672105 57.2658947 89.5672105 58.7658947 88.9308947 58.7658947 88.9395789 51.5422105 89.5924737 51.5422105 89.5758947 56.2103684 93.0787895 51.5422105 93.8587895 51.5422105"></polygon>
                    <polygon id="Fill-17" fill="#231F20" mask="url(#mask-2)" points="97.4194737 58.7660526 98.0478947 58.7660526 98.0478947 51.5336842 97.4194737 51.5336842"></polygon>
                    <polygon id="Fill-18" fill="#231F20" mask="url(#mask-2)" points="105.155447 58.7662105 101.609921 58.7662105 101.609921 51.5425263 105.1215 51.5425263 105.1215 52.1709474 102.255711 52.1709474 102.255711 55.8080526 104.635974 55.8080526 104.635974 56.4364737 102.255711 56.4364737 102.255711 58.1377895 105.155447 58.1377895"></polygon>
                    <path d="M111.842447,52.6069737 C111.724816,52.4506579 111.588237,52.3251316 111.431921,52.2296053 C111.274816,52.1340789 111.090868,52.0764474 110.8785,52.0535526 C110.693763,52.0369737 110.520868,52.0456579 110.359026,52.0788158 C110.197184,52.1127632 110.052711,52.1719737 109.927184,52.2596053 C109.801658,52.3456579 109.699816,52.4577632 109.621658,52.5943421 C109.542711,52.7309211 109.495342,52.8943421 109.478763,53.0838158 C109.462184,53.2748684 109.480342,53.4280263 109.533237,53.5448684 C109.586921,53.6625 109.676921,53.7738158 109.805605,53.8764474 C109.934289,53.9798684 110.099289,54.0903947 110.299816,54.2072368 C110.501132,54.3248684 110.741132,54.4788158 111.020605,54.6682895 C111.216395,54.7803947 111.414553,54.9098684 111.615868,55.0575 C111.817184,55.2059211 111.982184,55.3606579 112.110079,55.5232895 C112.249816,55.6906579 112.346921,55.8872368 112.399816,56.1138158 C112.452711,56.3403947 112.465342,56.5732895 112.437711,56.8132895 C112.409289,57.1267105 112.326395,57.4101316 112.189816,57.6643421 C112.053237,57.9193421 111.878763,58.1309211 111.666395,58.3014474 C111.454026,58.4719737 111.212447,58.5975 110.940868,58.6780263 C110.670079,58.7593421 110.386658,58.7861842 110.090605,58.7577632 C109.766921,58.7301316 109.459026,58.6369737 109.169289,58.4775 C108.878763,58.3180263 108.649026,58.1048684 108.481658,57.8364474 L108.984553,57.4172368 C109.095868,57.6296053 109.245868,57.7914474 109.432974,57.9035526 C109.620079,58.0156579 109.852974,58.0843421 110.132447,58.1135526 C110.333763,58.1348684 110.529553,58.1238158 110.719026,58.0796053 C110.909289,58.0346053 111.081395,57.9588158 111.234553,57.8538158 C111.3885,57.7472368 111.517184,57.6098684 111.620605,57.4425 C111.723237,57.2743421 111.786395,57.0761842 111.8085,56.8472368 C111.830605,56.6064474 111.815605,56.4098684 111.762711,56.2567105 C111.709816,56.1027632 111.627711,55.9677632 111.515605,55.8493421 C111.4035,55.7325 111.269289,55.6219737 111.112974,55.5185526 C110.956658,55.4159211 110.786921,55.2998684 110.602184,55.1711842 C110.4735,55.1040789 110.346395,55.0369737 110.220868,54.9698684 C110.095342,54.9027632 109.969026,54.8301316 109.8435,54.7519737 C109.717974,54.6738158 109.594816,54.5893421 109.474816,54.4969737 C109.354816,54.4046053 109.238763,54.2948684 109.127447,54.1661842 C108.997974,54.0201316 108.910342,53.8496053 108.862974,53.6546053 C108.815605,53.4588158 108.806132,53.2353947 108.833763,52.9843421 C108.855868,52.7269737 108.930079,52.4964474 109.056395,52.2927632 C109.181132,52.0890789 109.341395,51.9169737 109.533237,51.7772368 C109.725868,51.6375 109.944553,51.5356579 110.186921,51.4717105 C110.430079,51.4069737 110.685868,51.3888158 110.954289,51.4164474 C111.216395,51.4448684 111.465079,51.5246053 111.699553,51.6556579 C111.934816,51.7875 112.1385,51.9564474 112.311395,52.1632895 L111.842447,52.6069737 Z" id="Fill-19" fill="#231F20" mask="url(#mask-2)"></path>
                    <polygon id="Fill-20" fill="#231F20" mask="url(#mask-2)" points="120.089211 55.4897368 122.775 55.4897368 122.775 54.8526316 120.089211 54.8526316"></polygon>
                    <path d="M133.773868,52.6069737 C133.656237,52.4506579 133.518868,52.3251316 133.362553,52.2296053 C133.206237,52.1340789 133.0215,52.0764474 132.809132,52.0535526 C132.625184,52.0369737 132.452289,52.0456579 132.290447,52.0788158 C132.127816,52.1127632 131.984132,52.1719737 131.858605,52.2596053 C131.733079,52.3456579 131.631237,52.4577632 131.553079,52.5943421 C131.474132,52.7309211 131.426763,52.8943421 131.410184,53.0838158 C131.393605,53.2748684 131.411763,53.4280263 131.464658,53.5448684 C131.518342,53.6625 131.608342,53.7738158 131.737026,53.8764474 C131.865711,53.9798684 132.030711,54.0903947 132.231237,54.2072368 C132.432553,54.3248684 132.672553,54.4788158 132.952026,54.6682895 C133.147816,54.7803947 133.345974,54.9098684 133.547289,55.0575 C133.748605,55.2059211 133.912816,55.3606579 134.0415,55.5232895 C134.181237,55.6906579 134.277553,55.8872368 134.331237,56.1138158 C134.383342,56.3403947 134.396763,56.5732895 134.368342,56.8132895 C134.340711,57.1267105 134.257816,57.4101316 134.121237,57.6643421 C133.983868,57.9193421 133.810184,58.1309211 133.597816,58.3014474 C133.385447,58.4719737 133.143079,58.5975 132.872289,58.6780263 C132.6015,58.7593421 132.318079,58.7861842 132.022026,58.7577632 C131.697553,58.7301316 131.390447,58.6369737 131.100711,58.4775 C130.809395,58.3180263 130.580447,58.1048684 130.413079,57.8364474 L130.915184,57.4172368 C131.027289,57.6296053 131.1765,57.7914474 131.364395,57.9035526 C131.5515,58.0156579 131.784395,58.0843421 132.063868,58.1135526 C132.264395,58.1348684 132.460974,58.1238158 132.650447,58.0796053 C132.840711,58.0346053 133.012026,57.9588158 133.165974,57.8538158 C133.319132,57.7472368 133.447816,57.6098684 133.551237,57.4425 C133.654658,57.2743421 133.717816,57.0761842 133.739921,56.8472368 C133.762026,56.6064474 133.747026,56.4098684 133.693342,56.2567105 C133.640447,56.1027632 133.558342,55.9677632 133.446237,55.8493421 C133.334921,55.7325 133.200711,55.6219737 133.044395,55.5185526 C132.888079,55.4159211 132.717553,55.2998684 132.533605,55.1711842 C132.404921,55.1040789 132.277026,55.0369737 132.152289,54.9698684 C132.026763,54.9027632 131.900447,54.8301316 131.774921,54.7519737 C131.649395,54.6738158 131.526237,54.5893421 131.406237,54.4969737 C131.285447,54.4046053 131.170184,54.2948684 131.058079,54.1661842 C130.929395,54.0201316 130.841763,53.8496053 130.794395,53.6546053 C130.747026,53.4588158 130.736763,53.2353947 130.765184,52.9843421 C130.787289,52.7269737 130.8615,52.4964474 130.987026,52.2927632 C131.112553,52.0890789 131.272026,51.9169737 131.464658,51.7772368 C131.657289,51.6375 131.875184,51.5356579 132.118342,51.4717105 C132.3615,51.4069737 132.617289,51.3888158 132.884921,51.4164474 C133.147816,51.4448684 133.3965,51.5246053 133.630974,51.6556579 C133.865447,51.7875 134.069921,51.9564474 134.242816,52.1632895 L133.773868,52.6069737 Z" id="Fill-21" fill="#231F20" mask="url(#mask-2)"></path>
                    <polygon id="Fill-22" fill="#231F20" mask="url(#mask-2)" points="137.871316 58.7660526 138.499737 58.7660526 138.499737 51.5336842 137.871316 51.5336842"></polygon>
                    <polygon id="Fill-23" fill="#231F20" mask="url(#mask-2)" points="147.710289 58.9504737 142.682132 53.1849474 142.682132 58.7665263 142.062395 58.7665263 142.062395 51.4504737 147.090553 57.2996842 147.090553 51.5333684 147.710289 51.5333684"></polygon>
                    <path d="M157.021342,58.2551053 C156.412658,58.6632632 155.732921,58.8669474 154.9845,58.8669474 C153.962132,58.8669474 153.088184,58.5037895 152.361868,57.7782632 C151.635553,57.0519474 151.272395,56.1795789 151.272395,55.1627368 C151.272395,54.1403684 151.635553,53.2648421 152.361868,52.5353684 C153.088184,51.8066842 153.962132,51.4419474 154.9845,51.4419474 C155.716342,51.4419474 156.395289,51.6456316 157.021342,52.0537895 L156.677132,52.5898421 C156.175026,52.2543158 155.609763,52.0877368 154.9845,52.0877368 C154.135816,52.0877368 153.410289,52.3877368 152.810289,52.9877368 C152.208711,53.5885263 151.908711,54.3140526 151.908711,55.1627368 C151.908711,56.0058947 152.210289,56.7282632 152.814237,57.3290526 C153.418184,57.9298421 154.141342,58.2306316 154.9845,58.2306316 C155.598711,58.2306316 156.163184,58.0624737 156.677132,57.7269474 L157.021342,58.2551053 Z" id="Fill-24" fill="#231F20" mask="url(#mask-2)"></path>
                    <polygon id="Fill-25" fill="#231F20" mask="url(#mask-2)" points="164.127316 58.7662105 160.582579 58.7662105 160.582579 51.5425263 164.093368 51.5425263 164.093368 52.1709474 161.227579 52.1709474 161.227579 55.8080526 163.607842 55.8080526 163.607842 56.4364737 161.227579 56.4364737 161.227579 58.1377895 164.127316 58.1377895"></polygon>
                    <polygon id="Fill-26" fill="#231F20" mask="url(#mask-2)" points="172.683553 51.5337632 173.697237 51.5337632 173.697237 58.7661316 173.068816 58.7661316 173.068816 52.1542895 172.306184 52.1542895"></polygon>
                    <path d="M181.541289,54.0393947 C181.541289,53.7883421 181.491553,53.5515 181.3905,53.3280789 C181.290237,53.1038684 181.152868,52.9057105 180.979974,52.7328158 C180.806289,52.5591316 180.608132,52.4225526 180.3855,52.3215 C180.162079,52.2212368 179.924447,52.1715 179.672605,52.1715 C179.420763,52.1715 179.187079,52.2212368 178.968395,52.3215 C178.751289,52.4225526 178.562605,52.5591316 178.403132,52.7328158 C178.243658,52.9057105 178.118132,53.1038684 178.025763,53.3280789 C177.934184,53.5515 177.887605,53.7883421 177.887605,54.0393947 C177.887605,54.2912368 177.934184,54.5257105 178.025763,54.7443947 C178.118132,54.9615 178.246026,55.1501842 178.411026,55.3088684 C178.576026,55.4691316 178.770237,55.5946579 178.993658,55.6862368 C179.217868,55.7786053 179.463395,55.8251842 179.731026,55.8251842 C179.971816,55.8251842 180.200763,55.7817632 180.418658,55.6949211 C180.636553,55.6080789 180.826816,55.4880789 180.988658,55.3349211 C181.1505,55.1809737 181.279974,54.9993947 181.377868,54.7893947 C181.475763,54.5809737 181.530237,54.3551842 181.541289,54.1151842 L181.541289,54.0393947 Z M182.186289,54.0393947 C182.186289,54.6543947 181.984974,55.2125526 181.583921,55.7162368 L179.145237,58.7659737 L178.332079,58.7659737 L180.209447,56.4030789 C180.131289,56.4204474 180.049974,56.4322895 179.966289,56.4409737 C179.881816,56.4496579 179.783921,56.4536053 179.672605,56.4536053 C179.332342,56.4536053 179.014974,56.3920263 178.722079,56.2688684 C178.428395,56.1465 178.171816,55.9759737 177.954711,55.7580789 C177.736816,55.5393947 177.566289,55.2843947 177.443921,54.9907105 C177.319974,54.6978158 177.259184,54.3812368 177.259184,54.0393947 C177.259184,53.6991316 177.319974,53.3762368 177.443921,53.0715 C177.566289,52.7675526 177.736816,52.5007105 177.954711,52.2717632 C178.171816,52.0428158 178.428395,51.8604474 178.722079,51.7262368 C179.014974,51.5928158 179.332342,51.5257105 179.672605,51.5257105 C180.012868,51.5257105 180.336553,51.5928158 180.6405,51.7262368 C180.945237,51.8604474 181.212079,52.0428158 181.441026,52.2717632 C181.669974,52.5007105 181.851553,52.7675526 181.984974,53.0715 C182.119184,53.3762368 182.186289,53.6991316 182.186289,54.0393947 Z" id="Fill-27" fill="#231F20" mask="url(#mask-2)"></path>
                    <path d="M189.200842,56.1009474 C189.189789,55.5648947 188.994,55.107 188.615053,54.7272632 C188.223474,54.3309474 187.751368,54.132 187.197947,54.132 C186.817421,54.132 186.459789,54.2354211 186.125053,54.4414737 L186.108474,54.4588421 L186.100579,54.4588421 L186.117158,51.5259474 L189.117947,51.5259474 L189.117947,52.1709474 L186.779526,52.1709474 L186.770842,53.5375263 C186.910579,53.5154211 187.052684,53.5035789 187.197947,53.5035789 C187.924263,53.5035789 188.544789,53.7633158 189.058737,54.2827895 C189.572684,54.7912105 189.832421,55.4030526 189.838737,56.1175263 L189.838737,56.2106842 C189.838737,56.937 189.579,57.5583158 189.062684,58.0754211 C188.546368,58.5917368 187.924263,58.8498947 187.197947,58.8498947 C186.661105,58.8498947 186.178737,58.7077895 185.748474,58.422 L186.100579,57.8946316 C186.440842,58.1133158 186.807158,58.2222632 187.197947,58.2222632 C187.751368,58.2222632 188.223474,58.0256842 188.615053,57.6348947 C188.994,57.2496316 189.189789,56.7885789 189.200842,56.2517368 L189.200842,56.1009474 Z" id="Fill-28" fill="#231F20" mask="url(#mask-2)"></path>
                    <path d="M193.638553,52.8675 C193.755395,52.6330263 193.909342,52.4214474 194.098816,52.2319737 C194.544079,51.7803947 195.093553,51.5546053 195.745658,51.5546053 C196.391447,51.5546053 196.914868,51.7638158 197.316711,52.1822368 C197.717763,52.5998684 197.919079,53.0925 197.919079,53.6617105 C197.919079,54.0627632 197.822763,54.4369737 197.630132,54.7859211 C197.4375,55.1340789 197.066447,55.6061842 196.514605,56.2030263 L194.7675,58.0914474 L198.010658,58.0914474 L198.010658,58.7688158 L193.2375,58.7688158 L195.920921,55.8682895 C196.467237,55.2832895 196.821711,54.8498684 196.986711,54.5680263 C197.150921,54.2869737 197.233026,53.9901316 197.233026,53.6775 C197.233026,53.2819737 197.085395,52.9425 196.790132,52.6582895 C196.494868,52.3740789 196.134868,52.2319737 195.711711,52.2319737 C195.260921,52.2319737 194.884342,52.3827632 194.583553,52.6835526 C194.410658,52.8556579 194.279605,53.0735526 194.190395,53.3356579 L193.638553,52.8675 Z" id="Fill-29" fill="#231F20" mask="url(#mask-2)"></path>
                </g>
            </g>
        </g>
    </g>
</svg>