<?xml version="1.0" encoding="UTF-8"?>
<svg width="90px" height="76px" viewBox="0 0 90 76" version="1.1" xmlns="http://www.w3.org/2000/svg" xmlns:xlink="http://www.w3.org/1999/xlink">
    <!-- Generator: Sketch 51.3 (57544) - http://www.bohemiancoding.com/sketch -->
    <title>map-gold</title>
    <desc>Created with Sketch.</desc>
    <defs></defs>
    <g id="Page-1" stroke="none" stroke-width="1" fill="none" fill-rule="evenodd">
        <g id="Assets" transform="translate(-455.000000, -544.000000)" fill="#BD9D6E" fill-rule="nonzero">
            <g id="map-gold" transform="translate(455.000000, 544.000000)">
                <path d="M66.8260547,9.54070312 L45,0.554941406 L23.1739453,9.54070312 L0,0 L0,65.5838086 L23.1739453,75.1245117 L45,66.1389258 L66.8260547,75.1246875 L90,65.5839844 L90,0 L66.8260547,9.54070312 Z M21.8260547,71.6549414 L2.69542969,63.7788867 L2.69542969,4.0246875 L21.8260547,11.9007422 L21.8260547,13.8440039 L4.49226562,6.7078125 L4.49226562,62.5753125 L21.8260547,69.7116797 L21.8260547,71.6549414 Z M43.6522852,63.7788867 L24.5216602,71.6547656 L24.5216602,69.7115039 L43.6522852,61.835625 L43.6522852,63.7788867 Z M43.6522852,39.3994336 L42.3631055,41.2094531 C42.7849805,41.5098633 43.2156445,41.7984961 43.6522852,42.0760547 L43.6522852,58.9204687 L24.5216602,66.7965234 L24.5216602,38.4691992 L21.8262305,38.4691992 L21.8262305,66.7966992 L7.18787109,60.7702148 L7.18787109,10.7325 L21.8262305,16.7591602 L21.8262305,34.875 L24.5216602,34.875 L24.5216602,16.7591602 L43.6522852,8.88328125 L43.6522852,39.3994336 Z M43.6522852,5.968125 L24.5216602,13.8440039 L24.5216602,11.9007422 L43.6522852,4.02486328 L43.6522852,5.968125 Z M46.3477148,4.0246875 L65.4783398,11.9005664 L65.4783398,13.8438281 L46.3477148,5.968125 L46.3477148,4.0246875 Z M65.4783398,71.6547656 L46.3477148,63.7788867 L46.3477148,61.835625 L65.4783398,69.7115039 L65.4783398,71.6547656 Z M65.4783398,60.9310547 L65.4783398,66.7966992 L46.3477148,58.9208203 L46.3477148,43.5960352 C46.6831055,43.7626758 47.0202539,43.9245703 47.360918,44.0773242 L48.4651758,41.6183203 C47.7462305,41.2955859 47.0397656,40.9369922 46.3480664,40.5479883 L46.3477148,8.88328125 L65.4785156,16.7591602 L65.4785156,57.3368555 L68.1739453,57.3368555 L68.1739453,45.8683594 C69.4404492,45.6104883 70.7289258,45.2946094 72.0232031,44.9217773 L71.2773633,42.3316406 C70.2346289,42.631875 69.1969922,42.8930859 68.1739453,43.1143945 L68.1739453,16.7591602 L82.8123047,10.7325 L82.8123047,37.6479492 L82.8121289,37.6479492 C82.207793,37.9587305 81.603457,38.2635352 81.0075586,38.5511133 L82.1787891,40.9788281 C82.3888477,40.8772266 82.6001367,40.7742187 82.8119531,40.6698047 L82.8119531,60.7703906 L68.1737695,66.796875 L68.1737695,60.9312305 L65.4783398,60.9312305 L65.4783398,60.9310547 Z M87.3045703,63.7788867 L68.1739453,71.6547656 L68.1739453,69.7115039 L85.5077344,62.5751367 L85.5077344,6.70798828 L68.1739453,13.8441797 L68.1739453,11.900918 L87.3045703,4.02486328 L87.3045703,63.7788867 Z" id="Shape"></path>
                <polygon id="Shape" points="31.9061719 28.6934375 34.3468945 26.2527148 36.7876172 28.6934375 38.6936133 26.7874414 36.2527148 24.3467187 38.6937891 21.9058203 36.787793 20 34.3468945 22.4407227 31.9059961 20 30 21.9058203 32.4408984 24.3467187 30 26.7874414"></polygon>
                <path d="M35.4449414,29 L33,30.134668 C33.0207422,30.1791406 33.5169727,31.2431445 34.5593555,32.7959961 L36.7972266,31.2937695 C35.8843945,29.93375 35.4493359,29.0093164 35.4449414,29 Z" id="Shape"></path>
                <path d="M40.003418,38.8174805 L41.7564844,36.7698047 C40.434082,35.6377734 39.2030859,34.3693359 38.0970703,33 L36,34.6936523 C37.209375,36.1911328 38.5562109,37.5785742 40.003418,38.8174805 Z" id="Shape"></path>
                <path d="M50,44.5505859 C51.790332,45.1623047 53.673125,45.6089648 55.5966992,45.8786133 L55.9707617,43.209375 C54.2159375,42.963457 52.5004883,42.5565234 50.8713477,42 L50,44.5505859 Z" id="Shape"></path>
                <path d="M58.1536328,43.1235742 L58,45.8147852 C58.6498633,45.851875 59.3155469,45.8706836 59.9787695,45.8706836 C61.1957031,45.8706836 62.4506055,45.8072266 63.7086719,45.6822461 L63.4420117,43 C61.6376172,43.1792969 59.8566016,43.2206055 58.1536328,43.1235742 Z" id="Shape"></path>
                <path d="M80.1029492,41.4672656 L79.0180273,39 C77.3236719,39.7449609 75.6354688,40.4044922 74,40.9604883 L74.8671289,43.5124805 C76.5760742,42.931875 78.3377539,42.2436914 80.1029492,41.4672656 Z" id="Shape"></path>
            </g>
        </g>
    </g>
</svg>